<svg id="my-svg" width="774.61328125" xmlns="http://www.w3.org/2000/svg" xmlns:xlink="http://www.w3.org/1999/xlink" class="statediagram" height="1004" viewBox="0 0 774.61328125 1004" role="graphics-document document" aria-roledescription="stateDiagram" style="background-color: white;"><style>#my-svg{font-family:Helvetica Neue,Helvetica,Arial,sans-serif;font-size:15px;fill:#0A0C10;}@keyframes edge-animation-frame{from{stroke-dashoffset:0;}}@keyframes dash{to{stroke-dashoffset:0;}}#my-svg .edge-animation-slow{stroke-dasharray:9,5!important;stroke-dashoffset:900;animation:dash 50s linear infinite;stroke-linecap:round;}#my-svg .edge-animation-fast{stroke-dasharray:9,5!important;stroke-dashoffset:900;animation:dash 20s linear infinite;stroke-linecap:round;}#my-svg .error-icon{fill:#F4F6F9;}#my-svg .error-text{fill:#0b0906;stroke:#0b0906;}#my-svg .edge-thickness-normal{stroke-width:1px;}#my-svg .edge-thickness-thick{stroke-width:3.5px;}#my-svg .edge-pattern-solid{stroke-dasharray:0;}#my-svg .edge-thickness-invisible{stroke-width:0;fill:none;}#my-svg .edge-pattern-dashed{stroke-dasharray:3;}#my-svg .edge-pattern-dotted{stroke-dasharray:2;}#my-svg .marker{fill:#3A4759;stroke:#3A4759;}#my-svg .marker.cross{stroke:#3A4759;}#my-svg svg{font-family:Helvetica Neue,Helvetica,Arial,sans-serif;font-size:15px;}#my-svg p{margin:0;}#my-svg defs [id$="-barbEnd"]{fill:#3A4759;stroke:#3A4759;}#my-svg g.stateGroup text{fill:#1F4E9C;stroke:none;font-size:10px;}#my-svg g.stateGroup text{fill:#0A0C10;stroke:none;font-size:10px;}#my-svg g.stateGroup .state-title{font-weight:bolder;fill:#0A0C10;}#my-svg g.stateGroup rect{fill:#EAF1FB;stroke:#1F4E9C;}#my-svg g.stateGroup line{stroke:#3A4759;stroke-width:1;}#my-svg .transition{stroke:#3A4759;stroke-width:1;fill:none;}#my-svg .stateGroup .composit{fill:#f4f4f4;border-bottom:1px;}#my-svg .stateGroup .alt-composit{fill:#e0e0e0;border-bottom:1px;}#my-svg .state-note{stroke:hsl(52.6829268293, 60%, 73.9215686275%);fill:#fff5ad;}#my-svg .state-note text{fill:#333;stroke:none;font-size:10px;}#my-svg .stateLabel .box{stroke:none;stroke-width:0;fill:#EAF1FB;opacity:0.5;}#my-svg .edgeLabel .label rect{fill:#EAF1FB;opacity:0.5;}#my-svg .edgeLabel{background-color:#FFF1E0;text-align:center;}#my-svg .edgeLabel p{background-color:#FFF1E0;}#my-svg .edgeLabel rect{opacity:0.5;background-color:#FFF1E0;fill:#FFF1E0;}#my-svg .edgeLabel .label text{fill:#0A0C10;}#my-svg .label div .edgeLabel{color:#0A0C10;}#my-svg .stateLabel text{fill:#0A0C10;font-size:10px;font-weight:bold;}#my-svg .node circle.state-start{fill:#3A4759;stroke:#3A4759;}#my-svg .node .fork-join{fill:#3A4759;stroke:#3A4759;}#my-svg .node circle.state-end{fill:#1F4E9C;stroke:#f4f4f4;stroke-width:1.5;}#my-svg .end-state-inner{fill:#f4f4f4;stroke-width:1.5;}#my-svg .node rect{fill:#EAF1FB;stroke:#1F4E9C;stroke-width:1px;}#my-svg .node polygon{fill:#EAF1FB;stroke:#1F4E9C;stroke-width:1px;}#my-svg [id$="-barbEnd"]{fill:#3A4759;}#my-svg .statediagram-cluster rect{fill:#EAF1FB;stroke:#1F4E9C;stroke-width:1px;}#my-svg .cluster-label,#my-svg .nodeLabel{color:#0A0C10;}#my-svg .statediagram-cluster rect.outer{rx:5px;ry:5px;}#my-svg .statediagram-state .divider{stroke:#1F4E9C;}#my-svg .statediagram-state .title-state{rx:5px;ry:5px;}#my-svg .statediagram-cluster.statediagram-cluster .inner{fill:#f4f4f4;}#my-svg .statediagram-cluster.statediagram-cluster-alt .inner{fill:#F4F6F9;}#my-svg .statediagram-cluster .inner{rx:0;ry:0;}#my-svg .statediagram-state rect.basic{rx:5px;ry:5px;}#my-svg .statediagram-state rect.divider{stroke-dasharray:10,10;fill:#F4F6F9;}#my-svg .note-edge{stroke-dasharray:5;}#my-svg .statediagram-note rect{fill:#fff5ad;stroke:hsl(52.6829268293, 60%, 73.9215686275%);stroke-width:1px;rx:0;ry:0;}#my-svg .statediagram-note rect{fill:#fff5ad;stroke:hsl(52.6829268293, 60%, 73.9215686275%);stroke-width:1px;rx:0;ry:0;}#my-svg .statediagram-note text{fill:#333;}#my-svg .statediagram-note .nodeLabel{color:#333;}#my-svg .statediagram .edgeLabel{color:red;}#my-svg [id$="-dependencyStart"],#my-svg [id$="-dependencyEnd"]{fill:#3A4759;stroke:#3A4759;stroke-width:1;}#my-svg .statediagramTitleText{text-anchor:middle;font-size:18px;fill:#0A0C10;}#my-svg [data-look="neo"].statediagram-cluster rect{fill:#EAF1FB;stroke:url(#my-svg-gradient);stroke-width:1;}#my-svg [data-look="neo"].statediagram-cluster rect.outer{rx:5px;ry:5px;filter:drop-shadow( 1px 2px 2px rgba(185,185,185,1));}#my-svg .node .neo-node{stroke:#1F4E9C;}#my-svg [data-look="neo"].node rect,#my-svg [data-look="neo"].cluster rect,#my-svg [data-look="neo"].node polygon{stroke:url(#my-svg-gradient);filter:drop-shadow( 1px 2px 2px rgba(185,185,185,1));}#my-svg [data-look="neo"].swimlane.cluster rect{filter:none;}#my-svg [data-look="neo"].node path{stroke:url(#my-svg-gradient);stroke-width:1px;}#my-svg [data-look="neo"].node .outer-path{filter:drop-shadow( 1px 2px 2px rgba(185,185,185,1));}#my-svg [data-look="neo"].node .neo-line path{stroke:#1F4E9C;filter:none;}#my-svg [data-look="neo"].node circle{stroke:url(#my-svg-gradient);filter:drop-shadow( 1px 2px 2px rgba(185,185,185,1));}#my-svg [data-look="neo"].node circle .state-start{fill:#000000;}#my-svg [data-look="neo"].icon-shape .icon{fill:url(#my-svg-gradient);filter:drop-shadow( 1px 2px 2px rgba(185,185,185,1));}#my-svg [data-look="neo"].icon-shape .icon-neo path{stroke:url(#my-svg-gradient);filter:drop-shadow( 1px 2px 2px rgba(185,185,185,1));}#my-svg :root{--mermaid-font-family:"trebuchet ms",verdana,arial,sans-serif;}</style><g><defs><marker id="my-svg_stateDiagram-barbEnd" refX="19" refY="7" markerWidth="20" markerHeight="14" markerUnits="userSpaceOnUse" orient="auto"><path d="M 19,7 L9,13 L14,7 L9,1 Z"/></marker></defs><g class="root"><g class="clusters"><g class="note-cluster" id="my-svg-state-REPORTING----parent-11"><rect x="8" y="739.5" width="300" height="192.5" fill="none"/></g></g><g class="edgePaths"><path d="M515.824,22L515.824,29.917C515.824,37.833,515.824,53.667,515.824,69.5C515.824,85.333,515.824,101.167,515.824,109.083L515.824,117" id="my-svg-edge0" class="edge-thickness-normal edge-pattern-solid transition" style="fill:none;;;fill:none" data-edge="true" data-et="edge" data-id="edge0" data-points="W3sieCI6NTE1LjgyNDIxODc1LCJ5IjoyMn0seyJ4Ijo1MTUuODI0MjE4NzUsInkiOjY5LjV9LHsieCI6NTE1LjgyNDIxODc1LCJ5IjoxMTd9XQ==" data-look="classic" marker-end="url(#my-svg_stateDiagram-barbEnd)"/><path d="M515.824,155.5L515.824,163.417C515.824,171.333,515.824,187.167,515.824,203C515.824,218.833,515.824,234.667,515.824,242.583L515.824,250.5" id="my-svg-edge1" class="edge-thickness-normal edge-pattern-solid transition" style="fill:none;;;fill:none" data-edge="true" data-et="edge" data-id="edge1" data-points="W3sieCI6NTE1LjgyNDIxODc1LCJ5IjoxNTUuNX0seyJ4Ijo1MTUuODI0MjE4NzUsInkiOjIwM30seyJ4Ijo1MTUuODI0MjE4NzUsInkiOjI1MC41fV0=" data-look="classic" marker-end="url(#my-svg_stateDiagram-barbEnd)"/><path d="M472.824,280.816L436.763,290.097C400.702,299.378,328.579,317.939,305.564,335.136C282.549,352.333,308.642,368.167,321.688,376.083L334.734,384" id="my-svg-edge2" class="edge-thickness-normal edge-pattern-solid transition" style="fill:none;;;fill:none" data-edge="true" data-et="edge" data-id="edge2" data-points="W3sieCI6NDcyLjgyNDIxODc1LCJ5IjoyODAuODE2MzU3NDIwNDA0MjR9LHsieCI6MjU2LjQ1NzAzMTI1LCJ5IjozMzYuNX0seyJ4IjozMzQuNzM0MTg0ODA4MDUyNCwieSI6Mzg0fV0=" data-look="classic" marker-end="url(#my-svg_stateDiagram-barbEnd)"/><path d="M409.533,384L427.248,376.083C444.963,368.167,480.394,352.333,498.109,336.5C515.824,320.667,515.824,304.833,515.824,296.917L515.824,289" id="my-svg-edge3" class="edge-thickness-normal edge-pattern-solid transition" style="fill:none;;;fill:none" data-edge="true" data-et="edge" data-id="edge3" data-points="W3sieCI6NDA5LjUzMjk2MTcyNzUyODEsInkiOjM4NH0seyJ4Ijo1MTUuODI0MjE4NzUsInkiOjMzNi41fSx7IngiOjUxNS44MjQyMTg3NSwieSI6Mjg5fV0=" data-look="classic" marker-end="url(#my-svg_stateDiagram-barbEnd)"/><path d="M366.457,422.5L366.457,428.542C366.457,434.583,366.457,446.667,366.457,458.75C366.457,470.833,366.457,482.917,366.457,488.958L366.457,495" id="my-svg-edge4" class="edge-thickness-normal edge-pattern-solid transition" style="fill:none;;;fill:none" data-edge="true" data-et="edge" data-id="edge4" data-points="W3sieCI6MzY2LjQ1NzAzMTI1LCJ5Ijo0MjIuNX0seyJ4IjozNjYuNDU3MDMxMjUsInkiOjQ1OC43NX0seyJ4IjozNjYuNDU3MDMxMjUsInkiOjQ5NX1d" data-look="classic" marker-end="url(#my-svg_stateDiagram-barbEnd)"/><path d="M340.721,533.5L330.136,541.417C319.552,549.333,298.383,565.167,287.799,581C277.215,596.833,277.215,612.667,277.215,620.583L277.215,628.5" id="my-svg-edge5" class="edge-thickness-normal edge-pattern-solid transition" style="fill:none;;;fill:none" data-edge="true" data-et="edge" data-id="edge5" data-points="W3sieCI6MzQwLjcyMDUyMDI0ODEyNzM0LCJ5Ijo1MzMuNX0seyJ4IjoyNzcuMjE0ODQzNzUsInkiOjU4MX0seyJ4IjoyNzcuMjE0ODQzNzUsInkiOjYyOC41fV0=" data-look="classic" marker-end="url(#my-svg_stateDiagram-barbEnd)"/><path d="M318.564,667L331.542,673.042C344.519,679.083,370.475,691.167,383.452,703.25C396.43,715.333,396.43,727.417,396.43,746.292C396.43,765.167,396.43,790.833,396.43,803.667L396.43,816.5" id="my-svg-edge6" class="edge-thickness-normal edge-pattern-solid transition" style="fill:none;;;fill:none" data-edge="true" data-et="edge" data-id="edge6" data-points="W3sieCI6MzE4LjU2NDEzNjQwMjAyNzAzLCJ5Ijo2Njd9LHsieCI6Mzk2LjQyOTY4NzUsInkiOjcwMy4yNX0seyJ4IjozOTYuNDI5Njg3NSwieSI6NzM5LjV9LHsieCI6Mzk2LjQyOTY4NzUsInkiOjgxNi41fV0=" data-look="classic" marker-end="url(#my-svg_stateDiagram-barbEnd)"/><path d="M400.145,527.468L422.884,536.39C445.624,545.312,491.103,563.156,526.124,579.995C561.146,596.833,585.709,612.667,597.991,620.583L610.273,628.5" id="my-svg-edge7" class="edge-thickness-normal edge-pattern-solid transition" style="fill:none;;;fill:none" data-edge="true" data-et="edge" data-id="edge7" data-points="W3sieCI6NDAwLjE0NDUzMTI1LCJ5Ijo1MjcuNDY3NTc4OTg2MDM5N30seyJ4Ijo1MzYuNTgyMDMxMjUsInkiOjU4MX0seyJ4Ijo2MTAuMjcyNjMyODQxNzYwMiwieSI6NjI4LjV9XQ==" data-look="classic" marker-end="url(#my-svg_stateDiagram-barbEnd)"/><path d="M558.824,287.299L578.917,295.499C599.009,303.699,639.194,320.1,659.286,339.425C679.379,358.75,679.379,381,679.379,401.375C679.379,421.75,679.379,440.25,679.379,458.75C679.379,477.25,679.379,495.75,679.379,516.125C679.379,536.5,679.379,558.75,674.725,577.792C670.071,596.833,660.762,612.667,656.108,620.583L651.454,628.5" id="my-svg-edge8" class="edge-thickness-normal edge-pattern-solid transition" style="fill:none;;;fill:none" data-edge="true" data-et="edge" data-id="edge8" data-points="W3sieCI6NTU4LjgyNDIxODc1LCJ5IjoyODcuMjk5MTc2MDIxMDE3NDR9LHsieCI6Njc5LjM3ODkwNjI1LCJ5IjozMzYuNX0seyJ4Ijo2NzkuMzc4OTA2MjUsInkiOjQwMy4yNX0seyJ4Ijo2NzkuMzc4OTA2MjUsInkiOjQ1OC43NX0seyJ4Ijo2NzkuMzc4OTA2MjUsInkiOjUxNC4yNX0seyJ4Ijo2NzkuMzc4OTA2MjUsInkiOjU4MX0seyJ4Ijo2NTEuNDUzNzU0MDk2NDQxOSwieSI6NjI4LjV9XQ==" data-look="classic" marker-end="url(#my-svg_stateDiagram-barbEnd)"/><path d="M396.43,855L396.43,867.833C396.43,880.667,396.43,906.333,396.43,923.333C396.43,940.333,396.43,948.667,427.41,957.975C458.391,967.284,520.353,977.568,551.334,982.711L582.314,987.853" id="my-svg-edge9" class="edge-thickness-normal edge-pattern-solid transition" style="fill:none;;;fill:none" data-edge="true" data-et="edge" data-id="edge9" data-points="W3sieCI6Mzk2LjQyOTY4NzUsInkiOjg1NX0seyJ4IjozOTYuNDI5Njg3NSwieSI6OTMyfSx7IngiOjM5Ni40Mjk2ODc1LCJ5Ijo5NTd9LHsieCI6NTgyLjMxNDQ3ODI0NDc5NzYsInkiOjk4Ny44NTI3NDc1MDM0NzIzfV0=" data-look="classic" marker-end="url(#my-svg_stateDiagram-barbEnd)"/><path d="M640.137,667L640.137,673.042C640.137,679.083,640.137,691.167,640.137,703.25C640.137,715.333,640.137,727.417,640.137,749.5C640.137,771.583,640.137,803.667,640.137,835.75C640.137,867.833,640.137,899.917,640.137,920.125C640.137,940.333,640.137,948.667,632.64,957.545C625.144,966.424,610.151,975.848,602.655,980.559L595.159,985.271" id="my-svg-edge10" class="edge-thickness-normal edge-pattern-solid transition" style="fill:none;;;fill:none" data-edge="true" data-et="edge" data-id="edge10" data-points="W3sieCI6NjQwLjEzNjcxODc1LCJ5Ijo2Njd9LHsieCI6NjQwLjEzNjcxODc1LCJ5Ijo3MDMuMjV9LHsieCI6NjQwLjEzNjcxODc1LCJ5Ijo3MzkuNX0seyJ4Ijo2NDAuMTM2NzE4NzUsInkiOjgzNS43NX0seyJ4Ijo2NDAuMTM2NzE4NzUsInkiOjkzMn0seyJ4Ijo2NDAuMTM2NzE4NzUsInkiOjk1N30seyJ4Ijo1OTUuMTU4NjgwNzgyNTg5MywieSI6OTg1LjI3MTMxNzk2NDMyMzV9XQ==" data-look="classic" marker-end="url(#my-svg_stateDiagram-barbEnd)"/><path d="M235.866,667L222.888,673.042C209.91,679.083,183.955,691.167,170.978,703.25C158,715.333,158,727.417,158,737.625C158,747.833,158,756.167,158,760.333L158,764.5" id="my-svg-REPORTING-REPORTING----note-11" class="edge-thickness-normal edge-pattern-solid transition note-edge" style="fill:none;;;fill:none" data-edge="true" data-et="edge" data-id="REPORTING-REPORTING----note-11" data-points="W3sieCI6MjM1Ljg2NTU1MTA5Nzk3Mjk3LCJ5Ijo2Njd9LHsieCI6MTU4LCJ5Ijo3MDMuMjV9LHsieCI6MTU4LCJ5Ijo3MzkuNX0seyJ4IjoxNTgsInkiOjc2NC41fV0=" data-look="classic"/></g><g class="edgeLabels"><g class="edgeLabel" transform="translate(515.82421875, 69.5)"><g class="label" data-id="edge0" transform="translate(-100, -22.5)"><foreignObject width="200" height="45"><div xmlns="http://www.w3.org/1999/xhtml" class="labelBkg" style="display: table; white-space: break-spaces; line-height: 1.5; max-width: 200px; text-align: center; width: 200px;"><span class="edgeLabel"><p>created from an approved brief</p></span></div></foreignObject></g></g><g class="edgeLabel" transform="translate(515.82421875, 203)"><g class="label" data-id="edge1" transform="translate(-100, -22.5)"><foreignObject width="200" height="45"><div xmlns="http://www.w3.org/1999/xhtml" class="labelBkg" style="display: table; white-space: break-spaces; line-height: 1.5; max-width: 200px; text-align: center; width: 200px;"><span class="edgeLabel"><p>matching and invitations go out</p></span></div></foreignObject></g></g><g class="edgeLabel" transform="translate(320.30444, 320.06841)"><g class="label" data-id="edge2" transform="translate(-100, -22.5)"><foreignObject width="200" height="45"><div xmlns="http://www.w3.org/1999/xhtml" class="labelBkg" style="display: table; white-space: break-spaces; line-height: 1.5; max-width: 200px; text-align: center; width: 200px;"><span class="edgeLabel"><p>roster agreed with the sponsor</p></span></div></foreignObject></g></g><g class="edgeLabel" transform="translate(515.82421875, 336.5)"><g class="label" data-id="edge3" transform="translate(-100, -22.5)"><foreignObject width="200" height="45"><div xmlns="http://www.w3.org/1999/xhtml" class="labelBkg" style="display: table; white-space: break-spaces; line-height: 1.5; max-width: 200px; text-align: center; width: 200px;"><span class="edgeLabel"><p>sponsor wants a different roster (derived)</p></span></div></foreignObject></g></g><g class="edgeLabel" transform="translate(366.45703125, 458.75)"><g class="label" data-id="edge4" transform="translate(-99.875, -11.25)"><foreignObject width="199.75" height="22.5"><div xmlns="http://www.w3.org/1999/xhtml" class="labelBkg" style="display: table-cell; white-space: nowrap; line-height: 1.5; max-width: 200px; text-align: center;"><span class="edgeLabel"><p>orders accepted, work begins</p></span></div></foreignObject></g></g><g class="edgeLabel" transform="translate(277.21484375, 581)"><g class="label" data-id="edge5" transform="translate(-100, -22.5)"><foreignObject width="200" height="45"><div xmlns="http://www.w3.org/1999/xhtml" class="labelBkg" style="display: table; white-space: break-spaces; line-height: 1.5; max-width: 200px; text-align: center; width: 200px;"><span class="edgeLabel"><p>delivery finished, results being compiled</p></span></div></foreignObject></g></g><g class="edgeLabel" transform="translate(396.4296875, 703.25)"><g class="label" data-id="edge6" transform="translate(-81.8203125, -11.25)"><foreignObject width="163.640625" height="22.5"><div xmlns="http://www.w3.org/1999/xhtml" class="labelBkg" style="display: table-cell; white-space: nowrap; line-height: 1.5; max-width: 200px; text-align: center;"><span class="edgeLabel"><p>sponsor report delivered</p></span></div></foreignObject></g></g><g class="edgeLabel" transform="translate(509.17109, 570.24508)"><g class="label" data-id="edge7" transform="translate(-58.484375, -11.25)"><foreignObject width="116.96875" height="22.5"><div xmlns="http://www.w3.org/1999/xhtml" class="labelBkg" style="display: table-cell; white-space: nowrap; line-height: 1.5; max-width: 200px; text-align: center;"><span class="edgeLabel"><p>cancelled in flight</p></span></div></foreignObject></g></g><g class="edgeLabel" transform="translate(679.37890625, 458.75)"><g class="label" data-id="edge8" transform="translate(-87.234375, -11.25)"><foreignObject width="174.46875" height="22.5"><div xmlns="http://www.w3.org/1999/xhtml" class="labelBkg" style="display: table-cell; white-space: nowrap; line-height: 1.5; max-width: 200px; text-align: center;"><span class="edgeLabel"><p>cancelled before it started</p></span></div></foreignObject></g></g><g class="edgeLabel"><g class="label" data-id="edge9" transform="translate(0, 0)"><foreignObject width="0" height="0"><div xmlns="http://www.w3.org/1999/xhtml" class="labelBkg" style="display: table-cell; white-space: nowrap; line-height: 1.5; max-width: 200px; text-align: center;"><span class="edgeLabel"></span></div></foreignObject></g></g><g class="edgeLabel"><g class="label" data-id="edge10" transform="translate(0, 0)"><foreignObject width="0" height="0"><div xmlns="http://www.w3.org/1999/xhtml" class="labelBkg" style="display: table-cell; white-space: nowrap; line-height: 1.5; max-width: 200px; text-align: center;"><span class="edgeLabel"></span></div></foreignObject></g></g><g class="edgeLabel"><g class="label" data-id="REPORTING-REPORTING----note-11" transform="translate(0, 0)"><foreignObject width="0" height="0"><div xmlns="http://www.w3.org/1999/xhtml" class="labelBkg" style="display: table-cell; white-space: nowrap; line-height: 1.5; max-width: 200px; text-align: center;"><span class="edgeLabel"></span></div></foreignObject></g></g></g><g class="nodes"><g class="node default" id="my-svg-state-root_start-0" data-look="classic" transform="translate(515.82421875, 15)"><circle class="state-start" r="7" width="14" height="14"/></g><g class="node  statediagram-state" id="my-svg-state-DRAFT-1" data-look="classic" transform="translate(515.82421875, 136.25)"><rect class="basic label-container" style="" rx="5" ry="5" x="-31.890625" y="-19.25" width="63.78125" height="38.5"/><g class="label" style="" transform="translate(-23.890625, -11.25)"><rect/><foreignObject width="47.78125" height="22.5"><div xmlns="http://www.w3.org/1999/xhtml" style="display: table-cell; white-space: nowrap; line-height: 1.5; max-width: 200px; text-align: center;"><span class="nodeLabel markdown-node-label"><p>DRAFT</p></span></div></foreignObject></g></g><g class="node  statediagram-state" id="my-svg-state-STAFFING-8" data-look="classic" transform="translate(515.82421875, 269.75)"><rect class="basic label-container" style="" rx="5" ry="5" x="-43" y="-19.25" width="86" height="38.5"/><g class="label" style="" transform="translate(-35, -11.25)"><rect/><foreignObject width="70" height="22.5"><div xmlns="http://www.w3.org/1999/xhtml" style="display: table-cell; white-space: nowrap; line-height: 1.5; max-width: 200px; text-align: center;"><span class="nodeLabel markdown-node-label"><p>STAFFING</p></span></div></foreignObject></g></g><g class="node  statediagram-state" id="my-svg-state-APPROVAL-4" data-look="classic" transform="translate(366.45703125, 403.25)"><rect class="basic label-container" style="" rx="5" ry="5" x="-46.6875" y="-19.25" width="93.375" height="38.5"/><g class="label" style="" transform="translate(-38.6875, -11.25)"><rect/><foreignObject width="77.375" height="22.5"><div xmlns="http://www.w3.org/1999/xhtml" style="display: table-cell; white-space: nowrap; line-height: 1.5; max-width: 200px; text-align: center;"><span class="nodeLabel markdown-node-label"><p>APPROVAL</p></span></div></foreignObject></g></g><g class="node  statediagram-state" id="my-svg-state-ACTIVE-7" data-look="classic" transform="translate(366.45703125, 514.25)"><rect class="basic label-container" style="" rx="5" ry="5" x="-33.6875" y="-19.25" width="67.375" height="38.5"/><g class="label" style="" transform="translate(-25.6875, -11.25)"><rect/><foreignObject width="51.375" height="22.5"><div xmlns="http://www.w3.org/1999/xhtml" style="display: table-cell; white-space: nowrap; line-height: 1.5; max-width: 200px; text-align: center;"><span class="nodeLabel markdown-node-label"><p>ACTIVE</p></span></div></foreignObject></g></g><g class="node  statediagram-state" id="my-svg-state-REPORTING-11" data-look="classic" transform="translate(277.21484375, 647.75)"><rect class="basic label-container" style="" rx="5" ry="5" x="-50.640625" y="-19.25" width="101.28125" height="38.5"/><g class="label" style="" transform="translate(-42.640625, -11.25)"><rect/><foreignObject width="85.28125" height="22.5"><div xmlns="http://www.w3.org/1999/xhtml" style="display: table-cell; white-space: nowrap; line-height: 1.5; max-width: 200px; text-align: center;"><span class="nodeLabel markdown-node-label"><p>REPORTING</p></span></div></foreignObject></g></g><g class="node  statediagram-state" id="my-svg-state-COMPLETED-9" data-look="classic" transform="translate(396.4296875, 835.75)"><rect class="basic label-container" style="" rx="5" ry="5" x="-53.4296875" y="-19.25" width="106.859375" height="38.5"/><g class="label" style="" transform="translate(-45.4296875, -11.25)"><rect/><foreignObject width="90.859375" height="22.5"><div xmlns="http://www.w3.org/1999/xhtml" style="display: table-cell; white-space: nowrap; line-height: 1.5; max-width: 200px; text-align: center;"><span class="nodeLabel markdown-node-label"><p>COMPLETED</p></span></div></foreignObject></g></g><g class="node  statediagram-state" id="my-svg-state-CANCELLED-10" data-look="classic" transform="translate(640.13671875, 647.75)"><rect class="basic label-container" style="" rx="5" ry="5" x="-51.890625" y="-19.25" width="103.78125" height="38.5"/><g class="label" style="" transform="translate(-43.890625, -11.25)"><rect/><foreignObject width="87.78125" height="22.5"><div xmlns="http://www.w3.org/1999/xhtml" style="display: table-cell; white-space: nowrap; line-height: 1.5; max-width: 200px; text-align: center;"><span class="nodeLabel markdown-node-label"><p>CANCELLED</p></span></div></foreignObject></g></g><g class="node default" id="my-svg-state-root_end-10" data-look="classic" transform="translate(589.2265625, 989)"><g class="outer-path"><path d="M7 0 C7 0.40517908122283747, 6.964012880168563 0.816513743121899, 6.893654271085456 1.2155372436685123 C6.823295662002349 1.6145607442151257, 6.716427752933756 2.013397210557766, 6.5778483455013586 2.394141003279681 C6.439268938068961 2.7748847960015954, 6.26476736710249 3.149104622578984, 6.062177826491071 3.4999999999999996 C5.859588285879653 3.8508953774210153, 5.622755194947063 4.189128084166967, 5.362311101832846 4.499513267805774 C5.10186700871863 4.809898451444582, 4.809898451444583 5.10186700871863, 4.499513267805775 5.362311101832846 C4.189128084166968 5.622755194947063, 3.8508953774210166 5.859588285879652, 3.500000000000001 6.06217782649107 C3.149104622578985 6.264767367102489, 2.7748847960015963 6.439268938068961, 2.3941410032796817 6.5778483455013586 C2.013397210557767 6.716427752933756, 1.6145607442151264 6.823295662002349, 1.2155372436685128 6.893654271085456 C0.8165137431218992 6.964012880168563, 0.4051790812228379 7, 4.286263797015736e-16 7 C-0.405179081222837 7, -0.8165137431218985 6.964012880168563, -1.2155372436685121 6.893654271085456 C-1.6145607442151257 6.823295662002349, -2.0133972105577667 6.716427752933756, -2.394141003279681 6.5778483455013586 C-2.774884796001595 6.439268938068961, -3.149104622578983 6.26476736710249, -3.4999999999999982 6.062177826491071 C-3.8508953774210135 5.859588285879653, -4.189128084166966 5.6227551949470636, -4.499513267805773 5.362311101832848 C-4.809898451444581 5.101867008718632, -5.101867008718628 4.809898451444586, -5.3623111018328435 4.499513267805779 C-5.622755194947059 4.189128084166971, -5.859588285879649 3.8508953774210206, -6.062177826491068 3.5000000000000053 C-6.264767367102486 3.14910462257899, -6.439268938068958 2.774884796001602, -6.577848345501356 2.394141003279688 C-6.716427752933754 2.0133972105577738, -6.823295662002347 1.614560744215134, -6.893654271085454 1.215537243668521 C-6.9640128801685615 0.816513743121908, -6.999999999999999 0.4051790812228472, -7 1.0183126166254463e-14 C-7.000000000000001 -0.40517908122282686, -6.964012880168565 -0.8165137431218878, -6.893654271085459 -1.215537243668501 C-6.823295662002352 -1.6145607442151142, -6.716427752933759 -2.0133972105577542, -6.577848345501363 -2.394141003279669 C-6.439268938068967 -2.7748847960015834, -6.264767367102496 -3.149104622578972, -6.062177826491078 -3.4999999999999876 C-5.859588285879661 -3.8508953774210033, -5.6227551949470715 -4.1891280841669545, -5.362311101832856 -4.499513267805763 C-5.10186700871864 -4.809898451444571, -4.809898451444594 -5.10186700871862, -4.499513267805787 -5.362311101832836 C-4.189128084166979 -5.622755194947053, -3.850895377421028 -5.859588285879643, -3.5000000000000133 -6.062177826491062 C-3.1491046225789985 -6.264767367102482, -2.774884796001611 -6.439268938068954, -2.3941410032796973 -6.577848345501353 C-2.0133972105577835 -6.716427752933752, -1.6145607442151435 -6.823295662002345, -1.2155372436685306 -6.893654271085453 C-0.8165137431219176 -6.9640128801685615, -0.40517908122285695 -6.999999999999999, -1.9937625952807352e-14 -7 C0.4051790812228171 -7.000000000000001, 0.8165137431218781 -6.964012880168565, 1.2155372436684913 -6.89365427108546 C1.6145607442151044 -6.823295662002354, 2.013397210557745 -6.716427752933763, 2.3941410032796595 -6.5778483455013665 C2.774884796001574 -6.43926893806897, 3.149104622578963 -6.2647673671025, 3.499999999999979 -6.062177826491083 C3.8508953774209953 -5.859588285879665, 4.189128084166947 -5.622755194947077, 4.499513267805756 -5.362311101832862 C4.809898451444564 -5.1018670087186475, 5.101867008718613 -4.809898451444602, 5.362311101832829 -4.499513267805796 C5.622755194947046 -4.189128084166989, 5.859588285879637 -3.8508953774210393, 6.062177826491056 -3.500000000000025 C6.2647673671024755 -3.1491046225790105, 6.439268938068949 -2.774884796001623, 6.577848345501348 -2.3941410032797092 C6.716427752933747 -2.0133972105577955, 6.823295662002342 -1.6145607442151562, 6.893654271085451 -1.2155372436685434 C6.96401288016856 -0.8165137431219307, 6.982275711847575 -0.2025895406114567, 7 -3.2800750208310675e-14 C7.017724288152425 0.2025895406113911, 7.017724288152424 -0.2025895406114242, 7 0" stroke="none" stroke-width="0" fill="#EAF1FB" style=""/><path d="M7 0 C7 0.40517908122283747, 6.964012880168563 0.816513743121899, 6.893654271085456 1.2155372436685123 C6.823295662002349 1.6145607442151257, 6.716427752933756 2.013397210557766, 6.5778483455013586 2.394141003279681 C6.439268938068961 2.7748847960015954, 6.26476736710249 3.149104622578984, 6.062177826491071 3.4999999999999996 C5.859588285879653 3.8508953774210153, 5.622755194947063 4.189128084166967, 5.362311101832846 4.499513267805774 C5.10186700871863 4.809898451444582, 4.809898451444583 5.10186700871863, 4.499513267805775 5.362311101832846 C4.189128084166968 5.622755194947063, 3.8508953774210166 5.859588285879652, 3.500000000000001 6.06217782649107 C3.149104622578985 6.264767367102489, 2.7748847960015963 6.439268938068961, 2.3941410032796817 6.5778483455013586 C2.013397210557767 6.716427752933756, 1.6145607442151264 6.823295662002349, 1.2155372436685128 6.893654271085456 C0.8165137431218992 6.964012880168563, 0.4051790812228379 7, 4.286263797015736e-16 7 C-0.405179081222837 7, -0.8165137431218985 6.964012880168563, -1.2155372436685121 6.893654271085456 C-1.6145607442151257 6.823295662002349, -2.0133972105577667 6.716427752933756, -2.394141003279681 6.5778483455013586 C-2.774884796001595 6.439268938068961, -3.149104622578983 6.26476736710249, -3.4999999999999982 6.062177826491071 C-3.8508953774210135 5.859588285879653, -4.189128084166966 5.6227551949470636, -4.499513267805773 5.362311101832848 C-4.809898451444581 5.101867008718632, -5.101867008718628 4.809898451444586, -5.3623111018328435 4.499513267805779 C-5.622755194947059 4.189128084166971, -5.859588285879649 3.8508953774210206, -6.062177826491068 3.5000000000000053 C-6.264767367102486 3.14910462257899, -6.439268938068958 2.774884796001602, -6.577848345501356 2.394141003279688 C-6.716427752933754 2.0133972105577738, -6.823295662002347 1.614560744215134, -6.893654271085454 1.215537243668521 C-6.9640128801685615 0.816513743121908, -6.999999999999999 0.4051790812228472, -7 1.0183126166254463e-14 C-7.000000000000001 -0.40517908122282686, -6.964012880168565 -0.8165137431218878, -6.893654271085459 -1.215537243668501 C-6.823295662002352 -1.6145607442151142, -6.716427752933759 -2.0133972105577542, -6.577848345501363 -2.394141003279669 C-6.439268938068967 -2.7748847960015834, -6.264767367102496 -3.149104622578972, -6.062177826491078 -3.4999999999999876 C-5.859588285879661 -3.8508953774210033, -5.6227551949470715 -4.1891280841669545, -5.362311101832856 -4.499513267805763 C-5.10186700871864 -4.809898451444571, -4.809898451444594 -5.10186700871862, -4.499513267805787 -5.362311101832836 C-4.189128084166979 -5.622755194947053, -3.850895377421028 -5.859588285879643, -3.5000000000000133 -6.062177826491062 C-3.1491046225789985 -6.264767367102482, -2.774884796001611 -6.439268938068954, -2.3941410032796973 -6.577848345501353 C-2.0133972105577835 -6.716427752933752, -1.6145607442151435 -6.823295662002345, -1.2155372436685306 -6.893654271085453 C-0.8165137431219176 -6.9640128801685615, -0.40517908122285695 -6.999999999999999, -1.9937625952807352e-14 -7 C0.4051790812228171 -7.000000000000001, 0.8165137431218781 -6.964012880168565, 1.2155372436684913 -6.89365427108546 C1.6145607442151044 -6.823295662002354, 2.013397210557745 -6.716427752933763, 2.3941410032796595 -6.5778483455013665 C2.774884796001574 -6.43926893806897, 3.149104622578963 -6.2647673671025, 3.499999999999979 -6.062177826491083 C3.8508953774209953 -5.859588285879665, 4.189128084166947 -5.622755194947077, 4.499513267805756 -5.362311101832862 C4.809898451444564 -5.1018670087186475, 5.101867008718613 -4.809898451444602, 5.362311101832829 -4.499513267805796 C5.622755194947046 -4.189128084166989, 5.859588285879637 -3.8508953774210393, 6.062177826491056 -3.500000000000025 C6.2647673671024755 -3.1491046225790105, 6.439268938068949 -2.774884796001623, 6.577848345501348 -2.3941410032797092 C6.716427752933747 -2.0133972105577955, 6.823295662002342 -1.6145607442151562, 6.893654271085451 -1.2155372436685434 C6.96401288016856 -0.8165137431219307, 6.982275711847575 -0.2025895406114567, 7 -3.2800750208310675e-14 C7.017724288152425 0.2025895406113911, 7.017724288152424 -0.2025895406114242, 7 0" stroke="#3A4759" stroke-width="2" fill="none" stroke-dasharray="0 0" style=""/><g><path d="M2.5 0 C2.5 0.14470681472244193, 2.487147457203058 0.29161205111496386, 2.46201938253052 0.4341204441673258 C2.436891307857982 0.5766288372196877, 2.3987241974763416 0.7190704323420595, 2.3492315519647713 0.8550503583141718 C2.299738906453201 0.991030284286284, 2.2374169168223177 1.124680222349637, 2.165063509461097 1.2499999999999998 C2.092710102099876 1.3753197776503625, 2.0081268553382365 1.496117172916774, 1.915111107797445 1.6069690242163481 C1.8220953602566536 1.7178208755159223, 1.7178208755159226 1.8220953602566536, 1.6069690242163484 1.915111107797445 C1.4961171729167742 2.0081268553382365, 1.375319777650363 2.0927101020998755, 1.2500000000000002 2.1650635094610964 C1.1246802223496375 2.2374169168223172, 0.9910302842862845 2.2997389064532, 0.8550503583141721 2.349231551964771 C0.7190704323420597 2.3987241974763416, 0.576628837219688 2.436891307857982, 0.43412044416732604 2.46201938253052 C0.291612051114964 2.487147457203058, 0.14470681472244212 2.5, 1.5308084989341916e-16 2.5 C-0.1447068147224418 2.5, -0.2916120511149638 2.487147457203058, -0.43412044416732576 2.46201938253052 C-0.5766288372196877 2.436891307857982, -0.7190704323420595 2.3987241974763416, -0.8550503583141718 2.3492315519647713 C-0.991030284286284 2.299738906453201, -1.124680222349637 2.2374169168223177, -1.2499999999999996 2.165063509461097 C-1.375319777650362 2.092710102099876, -1.4961171729167733 2.008126855338237, -1.6069690242163475 1.9151111077974459 C-1.7178208755159217 1.8220953602566548, -1.822095360256653 1.7178208755159234, -1.9151111077974443 1.6069690242163495 C-2.0081268553382357 1.4961171729167755, -2.0927101020998746 1.3753197776503645, -2.1650635094610955 1.250000000000002 C-2.2374169168223164 1.1246802223496395, -2.2997389064531992 0.9910302842862865, -2.34923155196477 0.8550503583141743 C-2.3987241974763407 0.7190704323420621, -2.436891307857981 0.5766288372196907, -2.4620193825305194 0.434120444167329 C-2.487147457203058 0.29161205111496724, -2.5 0.14470681472244545, -2.5 3.636830773662308e-15 C-2.5 -0.14470681472243818, -2.4871474572030587 -0.2916120511149599, -2.4620193825305208 -0.4341204441673218 C-2.436891307857983 -0.5766288372196837, -2.398724197476343 -0.7190704323420553, -2.3492315519647726 -0.8550503583141675 C-2.2997389064532023 -0.9910302842862798, -2.23741691682232 -1.1246802223496328, -2.165063509461099 -1.2499999999999956 C-2.092710102099878 -1.3753197776503583, -2.00812685533824 -1.4961171729167695, -1.9151111077974488 -1.606969024216344 C-1.8220953602566576 -1.7178208755159183, -1.7178208755159263 -1.82209536025665, -1.6069690242163523 -1.9151111077974416 C-1.4961171729167784 -2.0081268553382334, -1.3753197776503672 -2.0927101020998724, -1.2500000000000047 -2.1650635094610937 C-1.1246802223496422 -2.237416916822315, -0.9910302842862897 -2.299738906453198, -0.8550503583141776 -2.3492315519647686 C-0.7190704323420656 -2.3987241974763394, -0.5766288372196942 -2.4368913078579806, -0.43412044416733236 -2.462019382530519 C-0.29161205111497057 -2.4871474572030574, -0.1447068147224489 -2.4999999999999996, -7.120580697431198e-15 -2.5 C0.14470681472243463 -2.5000000000000004, 0.29161205111495647 -2.487147457203059, 0.4341204441673183 -2.4620193825305217 C0.5766288372196802 -2.436891307857984, 0.7190704323420518 -2.3987241974763442, 0.8550503583141642 -2.349231551964774 C0.9910302842862766 -2.2997389064532037, 1.1246802223496295 -2.2374169168223212, 1.2499999999999925 -2.165063509461101 C1.3753197776503554 -2.0927101020998804, 1.4961171729167668 -2.008126855338242, 1.6069690242163412 -1.915111107797451 C1.7178208755159157 -1.82209536025666, 1.8220953602566472 -1.7178208755159294, 1.915111107797439 -1.6069690242163557 C2.0081268553382308 -1.496117172916782, 2.09271010209987 -1.3753197776503712, 2.1650635094610915 -1.2500000000000089 C2.237416916822313 -1.1246802223496466, 2.299738906453196 -0.9910302842862939, 2.3492315519647673 -0.855050358314182 C2.3987241974763385 -0.71907043234207, 2.4368913078579792 -0.5766288372196986, 2.462019382530518 -0.4341204441673369 C2.487147457203057 -0.29161205111497523, 2.4936698970884197 -0.07235340736123454, 2.5 -1.1714553645825241e-14 C2.5063301029115803 0.07235340736121111, 2.50633010291158 -0.07235340736122292, 2.5 0" stroke="none" stroke-width="0" fill="#1F4E9C" style=""/><path d="M2.5 0 C2.5 0.14470681472244193, 2.487147457203058 0.29161205111496386, 2.46201938253052 0.4341204441673258 C2.436891307857982 0.5766288372196877, 2.3987241974763416 0.7190704323420595, 2.3492315519647713 0.8550503583141718 C2.299738906453201 0.991030284286284, 2.2374169168223177 1.124680222349637, 2.165063509461097 1.2499999999999998 C2.092710102099876 1.3753197776503625, 2.0081268553382365 1.496117172916774, 1.915111107797445 1.6069690242163481 C1.8220953602566536 1.7178208755159223, 1.7178208755159226 1.8220953602566536, 1.6069690242163484 1.915111107797445 C1.4961171729167742 2.0081268553382365, 1.375319777650363 2.0927101020998755, 1.2500000000000002 2.1650635094610964 C1.1246802223496375 2.2374169168223172, 0.9910302842862845 2.2997389064532, 0.8550503583141721 2.349231551964771 C0.7190704323420597 2.3987241974763416, 0.576628837219688 2.436891307857982, 0.43412044416732604 2.46201938253052 C0.291612051114964 2.487147457203058, 0.14470681472244212 2.5, 1.5308084989341916e-16 2.5 C-0.1447068147224418 2.5, -0.2916120511149638 2.487147457203058, -0.43412044416732576 2.46201938253052 C-0.5766288372196877 2.436891307857982, -0.7190704323420595 2.3987241974763416, -0.8550503583141718 2.3492315519647713 C-0.991030284286284 2.299738906453201, -1.124680222349637 2.2374169168223177, -1.2499999999999996 2.165063509461097 C-1.375319777650362 2.092710102099876, -1.4961171729167733 2.008126855338237, -1.6069690242163475 1.9151111077974459 C-1.7178208755159217 1.8220953602566548, -1.822095360256653 1.7178208755159234, -1.9151111077974443 1.6069690242163495 C-2.0081268553382357 1.4961171729167755, -2.0927101020998746 1.3753197776503645, -2.1650635094610955 1.250000000000002 C-2.2374169168223164 1.1246802223496395, -2.2997389064531992 0.9910302842862865, -2.34923155196477 0.8550503583141743 C-2.3987241974763407 0.7190704323420621, -2.436891307857981 0.5766288372196907, -2.4620193825305194 0.434120444167329 C-2.487147457203058 0.29161205111496724, -2.5 0.14470681472244545, -2.5 3.636830773662308e-15 C-2.5 -0.14470681472243818, -2.4871474572030587 -0.2916120511149599, -2.4620193825305208 -0.4341204441673218 C-2.436891307857983 -0.5766288372196837, -2.398724197476343 -0.7190704323420553, -2.3492315519647726 -0.8550503583141675 C-2.2997389064532023 -0.9910302842862798, -2.23741691682232 -1.1246802223496328, -2.165063509461099 -1.2499999999999956 C-2.092710102099878 -1.3753197776503583, -2.00812685533824 -1.4961171729167695, -1.9151111077974488 -1.606969024216344 C-1.8220953602566576 -1.7178208755159183, -1.7178208755159263 -1.82209536025665, -1.6069690242163523 -1.9151111077974416 C-1.4961171729167784 -2.0081268553382334, -1.3753197776503672 -2.0927101020998724, -1.2500000000000047 -2.1650635094610937 C-1.1246802223496422 -2.237416916822315, -0.9910302842862897 -2.299738906453198, -0.8550503583141776 -2.3492315519647686 C-0.7190704323420656 -2.3987241974763394, -0.5766288372196942 -2.4368913078579806, -0.43412044416733236 -2.462019382530519 C-0.29161205111497057 -2.4871474572030574, -0.1447068147224489 -2.4999999999999996, -7.120580697431198e-15 -2.5 C0.14470681472243463 -2.5000000000000004, 0.29161205111495647 -2.487147457203059, 0.4341204441673183 -2.4620193825305217 C0.5766288372196802 -2.436891307857984, 0.7190704323420518 -2.3987241974763442, 0.8550503583141642 -2.349231551964774 C0.9910302842862766 -2.2997389064532037, 1.1246802223496295 -2.2374169168223212, 1.2499999999999925 -2.165063509461101 C1.3753197776503554 -2.0927101020998804, 1.4961171729167668 -2.008126855338242, 1.6069690242163412 -1.915111107797451 C1.7178208755159157 -1.82209536025666, 1.8220953602566472 -1.7178208755159294, 1.915111107797439 -1.6069690242163557 C2.0081268553382308 -1.496117172916782, 2.09271010209987 -1.3753197776503712, 2.1650635094610915 -1.2500000000000089 C2.237416916822313 -1.1246802223496466, 2.299738906453196 -0.9910302842862939, 2.3492315519647673 -0.855050358314182 C2.3987241974763385 -0.71907043234207, 2.4368913078579792 -0.5766288372196986, 2.462019382530518 -0.4341204441673369 C2.487147457203057 -0.29161205111497523, 2.4936698970884197 -0.07235340736123454, 2.5 -1.1714553645825241e-14 C2.5063301029115803 0.07235340736121111, 2.50633010291158 -0.07235340736122292, 2.5 0" stroke="#1F4E9C" stroke-width="2" fill="none" stroke-dasharray="0 0" style=""/></g></g></g><g class="node statediagram-note" id="my-svg-state-REPORTING----note-11" data-look="classic" transform="translate(158, 835.75)"><g class="basic label-container outer-path"><path d="M-115 -71.25 L115 -71.25 L115 71.25 L-115 71.25" stroke="none" stroke-width="0" fill="#fff5ad" style=""/><path d="M-115 -71.25 C-32.908269034615756 -71.25, 49.18346193076849 -71.25, 115 -71.25 M-115 -71.25 C-52.30212737239686 -71.25, 10.395745255206279 -71.25, 115 -71.25 M115 -71.25 C115 -36.44808389320765, 115 -1.6461677864153046, 115 71.25 M115 -71.25 C115 -14.356233635624292, 115 42.537532728751415, 115 71.25 M115 71.25 C48.730004006752864 71.25, -17.53999198649427 71.25, -115 71.25 M115 71.25 C35.926481084081374 71.25, -43.14703783183725 71.25, -115 71.25 M-115 71.25 C-115 38.354968049915264, -115 5.459936099830529, -115 -71.25 M-115 71.25 C-115 24.056819537660495, -115 -23.13636092467901, -115 -71.25" stroke="hsl(52.6829268293, 60%, 73.9215686275%)" stroke-width="1.3" fill="none" stroke-dasharray="0 0" style=""/></g><g class="label noteLabel" style="" transform="translate(-100, -56.25)"><rect/><foreignObject width="200" height="112.5"><div xmlns="http://www.w3.org/1999/xhtml" style="display: table; white-space: break-spaces; line-height: 1.5; max-width: 200px; text-align: center; width: 200px;"><span class="nodeLabel markdown-node-label"><p>The sponsor report is the document that earns<br />the renewal — REPORTING is a real working state,<br />not a formality.</p></span></div></foreignObject></g></g></g></g></g><defs><filter id="my-svg-drop-shadow" height="130%" width="130%"><feDropShadow dx="4" dy="4" stdDeviation="0" flood-opacity="0.06" flood-color="#000000"/></filter></defs><defs><filter id="my-svg-drop-shadow-small" height="150%" width="150%"><feDropShadow dx="2" dy="2" stdDeviation="0" flood-opacity="0.06" flood-color="#000000"/></filter></defs><linearGradient id="my-svg-gradient" gradientUnits="objectBoundingBox" x1="0%" y1="0%" x2="100%" y2="0%"><stop offset="0%" stop-color="#1F4E9C" stop-opacity="1"/><stop offset="100%" stop-color="hsl(32.9032258065, 60%, 83.9215686275%)" stop-opacity="1"/></linearGradient></svg>